<?xml version="1.0" encoding="UTF-8" standalone="no"?>
<!-- Created with Inkscape (http://www.inkscape.org/) -->

<svg
   xmlns:dc="http://purl.org/dc/elements/1.1/"
   xmlns:cc="http://creativecommons.org/ns#"
   xmlns:rdf="http://www.w3.org/1999/02/22-rdf-syntax-ns#"
   xmlns:svg="http://www.w3.org/2000/svg"
   xmlns="http://www.w3.org/2000/svg"
   xmlns:sodipodi="http://sodipodi.sourceforge.net/DTD/sodipodi-0.dtd"
   xmlns:inkscape="http://www.inkscape.org/namespaces/inkscape"
   width="128"
   height="64"
   id="svg3845"
   version="1.1"
   inkscape:version="0.48.4 r9939"
   sodipodi:docname="key.svg"
   inkscape:export-filename="/home/james/dev/js/js13k-2016/rawImages/key.png"
   inkscape:export-xdpi="90"
   inkscape:export-ydpi="90">
  <defs
     id="defs3847" />
  <sodipodi:namedview
     id="base"
     pagecolor="#ffffff"
     bordercolor="#666666"
     borderopacity="1.0"
     inkscape:pageopacity="0.0"
     inkscape:pageshadow="2"
     inkscape:zoom="4"
     inkscape:cx="99.171888"
     inkscape:cy="26.176667"
     inkscape:document-units="px"
     inkscape:current-layer="text4418"
     showgrid="true"
     fit-margin-top="0"
     fit-margin-left="0"
     fit-margin-right="0"
     fit-margin-bottom="0"
     inkscape:snap-global="false"
     inkscape:window-width="1301"
     inkscape:window-height="744"
     inkscape:window-x="65"
     inkscape:window-y="24"
     inkscape:window-maximized="1">
    <inkscape:grid
       type="xygrid"
       id="grid4377"
       empspacing="5"
       visible="true"
       enabled="true"
       snapvisiblegridlinesonly="true" />
  </sodipodi:namedview>
  <metadata
     id="metadata3850">
    <rdf:RDF>
      <cc:Work
         rdf:about="">
        <dc:format>image/svg+xml</dc:format>
        <dc:type
           rdf:resource="http://purl.org/dc/dcmitype/StillImage" />
        <dc:title></dc:title>
      </cc:Work>
    </rdf:RDF>
  </metadata>
  <g
     inkscape:label="Layer 1"
     inkscape:groupmode="layer"
     id="layer1"
     transform="translate(-142.28572,-70.576462)">
    <path
       style="fill:#efefef;fill-opacity:1;stroke:none"
       d="m 150.20834,94.576463 c 0,0 37.22477,1.320274 55.83714,1.320274 18.61238,0 55.83714,-1.320274 55.83714,-1.320274 0,0 10.1738,22.962757 6.97965,26.139907 -10.25429,10.19977 -115.06907,10.14425 -125.63357,0 -3.40554,-3.27005 6.97964,-26.139907 6.97964,-26.139907 z"
       id="rect3864"
       inkscape:connector-curvature="0"
       sodipodi:nodetypes="cscssc" />
    <path
       style="fill:#cccccc;fill-opacity:1;stroke:none"
       d="m 142.55198,118.06595 c 0,0 -3.12893,6.18087 63.38525,5.94351 66.91101,-0.23877 63.48092,-6.11094 63.48092,-6.11094 0,0 3.13127,16.52829 -2.50379,16.65358 -8.06538,0.17933 -113.18838,-0.68787 -120.90934,-0.75731 -5.14472,-0.0463 -3.45304,-15.72877 -3.45304,-15.72877 z"
       id="rect3867"
       inkscape:connector-curvature="0"
       sodipodi:nodetypes="cscsscc" />
    <g
       style="font-size:40px;font-style:normal;font-weight:normal;line-height:125%;letter-spacing:0px;word-spacing:0px;fill:#000000;fill-opacity:1;stroke:none;font-family:Sans"
       id="text4418"
       transform="matrix(1.6880852,0,0,1,-141.6261,-0.17677669)">
      <path
         d="m 205.18755,102.28451 -5.35157,10.20099 10.72266,0 -5.37109,-10.20099 m -2.22657,-2.732167 4.47266,0 11.11328,20.498097 -4.10156,0 -2.65625,-5.25839 -13.14453,0 -2.65625,5.25839 -4.16016,0 11.13281,-20.498097"
         id="path4423"
         inkscape:connector-curvature="0" />
    </g>
  </g>
</svg>
