<?xml version="1.0" encoding="UTF-8" standalone="no"?>
<!-- Created with Inkscape (http://www.inkscape.org/) -->

<svg
   xmlns:dc="http://purl.org/dc/elements/1.1/"
   xmlns:cc="http://creativecommons.org/ns#"
   xmlns:rdf="http://www.w3.org/1999/02/22-rdf-syntax-ns#"
   xmlns:svg="http://www.w3.org/2000/svg"
   xmlns="http://www.w3.org/2000/svg"
   xmlns:sodipodi="http://sodipodi.sourceforge.net/DTD/sodipodi-0.dtd"
   xmlns:inkscape="http://www.inkscape.org/namespaces/inkscape"
   width="63.999996"
   height="19.99999"
   id="svg3845"
   version="1.1"
   inkscape:version="0.48.4 r9939"
   sodipodi:docname="sKey.svg"
   inkscape:export-filename="/home/james/dev/js/js13k-2016/rawImages/sKey.png"
   inkscape:export-xdpi="90"
   inkscape:export-ydpi="90">
  <defs
     id="defs3847" />
  <sodipodi:namedview
     id="base"
     pagecolor="#ffffff"
     bordercolor="#666666"
     borderopacity="1.0"
     inkscape:pageopacity="0.0"
     inkscape:pageshadow="2"
     inkscape:zoom="2.8284271"
     inkscape:cx="44.699904"
     inkscape:cy="25.393328"
     inkscape:document-units="px"
     inkscape:current-layer="layer1"
     showgrid="true"
     fit-margin-top="0"
     fit-margin-left="0"
     fit-margin-right="0"
     fit-margin-bottom="0"
     inkscape:snap-global="false"
     inkscape:window-width="1301"
     inkscape:window-height="744"
     inkscape:window-x="65"
     inkscape:window-y="24"
     inkscape:window-maximized="1">
    <inkscape:grid
       type="xygrid"
       id="grid4377"
       empspacing="5"
       visible="true"
       enabled="true"
       snapvisiblegridlinesonly="true"
       originx="1.8934708e-06px"
       originy="0.082468689px" />
  </sodipodi:namedview>
  <metadata
     id="metadata3850">
    <rdf:RDF>
      <cc:Work
         rdf:about="">
        <dc:format>image/svg+xml</dc:format>
        <dc:type
           rdf:resource="http://purl.org/dc/dcmitype/StillImage" />
        <dc:title />
      </cc:Work>
    </rdf:RDF>
  </metadata>
  <g
     inkscape:label="Layer 1"
     inkscape:groupmode="layer"
     id="layer1"
     transform="translate(-142.28572,-114.65894)">
    <path
       style="fill:#efefef;fill-opacity:1;stroke:none"
       d="m 146.24703,114.65894 c 0,0 18.61238,0.65878 27.91857,0.65878 9.30619,0 27.91857,-0.65878 27.91857,-0.65878 0,0 5.0869,11.45775 3.48982,13.04306 -5.12714,5.08938 -57.53453,5.06168 -62.81678,0 -1.70277,-1.63167 3.48982,-13.04306 3.48982,-13.04306 z"
       id="rect3864"
       inkscape:connector-curvature="0"
       sodipodi:nodetypes="cscssc" />
    <path
       style="fill:#cccccc;fill-opacity:1;stroke:none"
       d="m 142.41885,126.37951 c 0,0 -1.56447,3.08407 31.69262,2.96564 33.45551,-0.11914 31.74046,-3.04918 31.74046,-3.04918 0,0 1.56564,8.24714 -1.25189,8.30965 -4.03269,0.0895 -56.59419,0.0468 -60.45467,0.0122 -2.57236,-0.0231 -1.72652,-8.23823 -1.72652,-8.23823 z"
       id="rect3867"
       inkscape:connector-curvature="0"
       sodipodi:nodetypes="cscsscc" />
    <g
       style="font-size:40px;font-style:normal;font-weight:normal;line-height:125%;letter-spacing:0px;word-spacing:0px;fill:#000000;fill-opacity:1;stroke:none;font-family:Sans"
       id="text4444"
       transform="matrix(0.5,0,0,0.49897097,88.732139,67.909061)">
      <path
         d="m 184.60881,99.469975 1e-5,1.794685 c -2.95459,-0.49852 -3.66502,-0.42823 -6.28555,-0.67299 -2.6206,-0.24473 -5.99092,-0.32291 -8.4316,-0.32293 -4.23917,2e-5 -7.16133,0.42267 -9.47357,1.00279 -2.28657,0.58015 -4.31375,1.84697 -4.31372,2.91656 -3e-5,0.89741 1.64176,1.48886 3.15759,1.95116 1.54149,0.45324 4.44466,0.82034 8.70951,1.10134 l 4.70161,0.33992 c 5.80631,0.38978 10.08397,1.07868 12.83304,2.06671 2.77468,0.97899 4.16202,2.29334 4.16208,3.94309 -6e-5,1.96701 -1.87555,3.45813 -5.62651,4.47336 -3.72534,1.01524 -9.19769,1.52285 -16.41705,1.52285 -2.72336,0 -5.62652,-0.10885 -8.70952,-0.32633 -3.05735,-0.21756 -6.23026,-0.53933 -9.51881,-0.96538 l 0.0442,-3.53525 c 3.16009,0.62546 6.18273,0.84682 9.21436,1.16407 3.03162,0.31727 5.35968,0.32501 8.46534,0.32501 4.44465,0 8.16777,0.0789 10.45026,-0.31659 2.45582,-0.42548 3.96624,-0.99565 3.96627,-2.13778 -3e-5,-0.9971 -0.87354,-1.77666 -2.62055,-2.33867 -1.72137,-0.56199 -4.56033,-0.9835 -8.51682,-1.2645 l -4.74014,-0.32634 c -5.80637,-0.40788 -8.74737,-1.22348 -11.27599,-2.27069 -1.88777,-0.78181 -2.38972,-1.72675 -2.38972,-3.27681 0,-1.79476 1.59364,-2.67314 3.66221,-3.61814 3.56558,-1.158347 7.40861,-2.174087 13.70312,-2.174117 2.6976,3e-5 5.44663,0.0862 8.24707,0.25835 2.80036,0.17223 3.19012,0.253803 6.11902,0.598233"
         id="path4449"
         inkscape:connector-curvature="0"
         sodipodi:nodetypes="ccccccccccccscccsssccccsscccc" />
    </g>
  </g>
</svg>
